<svg data-v-fde0c5aa="" xmlns="http://www.w3.org/2000/svg" viewBox="0 0 300 300" class="iconLeft"><!----><defs data-v-fde0c5aa=""><!----></defs><rect data-v-fde0c5aa="" fill="transparent" x="0" y="0" width="300px" height="300px" class="logo-background-square"></rect><defs data-v-fde0c5aa=""><!----></defs><g data-v-fde0c5aa="" id="f5e6a570-4334-49d1-97fa-ec2b25eb3ff0" fill="#FFFFFF" transform="matrix(4.472340383879055,0,0,4.472340383879055,124.0855817957687,110.33034130681153)"><path d="M4.19 14.11L4.19 14.11Q3.07 14.11 2.22 13.74L2.22 13.74L2.22 13.74Q1.37 13.37 0.91 12.68L0.91 12.68L0.91 12.68Q0.45 11.98 0.45 11.07L0.45 11.07L0.45 10.89L0.45 10.89Q0.45 10.78 0.52 10.71L0.52 10.71L0.52 10.71Q0.59 10.64 0.70 10.64L0.70 10.64L2.48 10.64L2.48 10.64Q2.59 10.64 2.66 10.69L2.66 10.69L2.66 10.69Q2.73 10.74 2.73 10.81L2.73 10.81L2.73 10.98L2.73 10.98Q2.73 11.42 3.19 11.77L3.19 11.77L3.19 11.77Q3.64 12.12 4.35 12.12L4.35 12.12L4.35 12.12Q4.97 12.12 5.26 11.86L5.26 11.86L5.26 11.86Q5.56 11.59 5.56 11.24L5.56 11.24L5.56 11.24Q5.56 10.85 5.21 10.64L5.21 10.64L5.21 10.64Q4.87 10.43 3.99 10.15L3.99 10.15L3.68 10.05L3.68 10.05Q2.79 9.76 2.11 9.41L2.11 9.41L2.11 9.41Q1.44 9.07 0.97 8.46L0.97 8.46L0.97 8.46Q0.49 7.85 0.49 6.96L0.49 6.96L0.49 6.96Q0.49 6.09 0.95 5.44L0.95 5.44L0.95 5.44Q1.40 4.79 2.21 4.44L2.21 4.44L2.21 4.44Q3.01 4.09 4.03 4.09L4.03 4.09L4.03 4.09Q5.11 4.09 5.97 4.48L5.97 4.48L5.97 4.48Q6.83 4.87 7.32 5.59L7.32 5.59L7.32 5.59Q7.81 6.30 7.81 7.22L7.81 7.22L7.81 7.34L7.81 7.34Q7.81 7.45 7.74 7.52L7.74 7.52L7.74 7.52Q7.67 7.59 7.56 7.59L7.56 7.59L5.78 7.59L5.78 7.59Q5.67 7.59 5.60 7.55L5.60 7.55L5.60 7.55Q5.53 7.52 5.53 7.45L5.53 7.45L5.53 7.32L5.53 7.32Q5.53 6.83 5.10 6.45L5.10 6.45L5.10 6.45Q4.66 6.08 3.93 6.08L3.93 6.08L3.93 6.08Q3.39 6.08 3.08 6.30L3.08 6.30L3.08 6.30Q2.77 6.52 2.77 6.93L2.77 6.93L2.77 6.93Q2.77 7.24 2.97 7.44L2.97 7.44L2.97 7.44Q3.16 7.64 3.58 7.82L3.58 7.82L3.58 7.82Q3.99 7.99 4.84 8.27L4.84 8.27L4.84 8.27Q5.82 8.61 6.37 8.86L6.37 8.86L6.37 8.86Q6.92 9.11 7.40 9.68L7.40 9.68L7.40 9.68Q7.88 10.25 7.88 11.17L7.88 11.17L7.88 11.17Q7.88 12.05 7.42 12.72L7.42 12.72L7.42 12.72Q6.96 13.38 6.12 13.75L6.12 13.75L6.12 13.75Q5.28 14.11 4.19 14.11L4.19 14.11ZM11.96 6.65L11.96 6.65Q12.88 6.65 13.64 6.96L13.64 6.96L13.64 6.96Q14.39 7.28 14.83 7.83L14.83 7.83L14.83 7.83Q15.26 8.39 15.26 9.06L15.26 9.06L15.26 13.75L15.26 13.75Q15.26 13.86 15.19 13.93L15.19 13.93L15.19 13.93Q15.12 14 15.01 14L15.01 14L13.19 14L13.19 14Q13.08 14 13.01 13.93L13.01 13.93L13.01 13.93Q12.94 13.86 12.94 13.75L12.94 13.75L12.94 13.47L12.94 13.47Q12.94 13.40 12.90 13.38L12.90 13.38L12.90 13.38Q12.87 13.37 12.82 13.43L12.82 13.43L12.82 13.43Q12.26 14.11 11.02 14.11L11.02 14.11L11.02 14.11Q9.91 14.11 9.25 13.59L9.25 13.59L9.25 13.59Q8.60 13.06 8.60 12.04L8.60 12.04L8.60 12.04Q8.60 10.96 9.35 10.37L9.35 10.37L9.35 10.37Q10.09 9.79 11.51 9.79L11.51 9.79L12.84 9.79L12.84 9.79Q12.94 9.79 12.94 9.69L12.94 9.69L12.94 9.45L12.94 9.45Q12.94 9.07 12.69 8.86L12.69 8.86L12.69 8.86Q12.45 8.64 12.00 8.64L12.00 8.64L12.00 8.64Q11.68 8.64 11.45 8.74L11.45 8.74L11.45 8.74Q11.21 8.85 11.12 9.03L11.12 9.03L11.12 9.03Q11.05 9.13 10.98 9.18L10.98 9.18L10.98 9.18Q10.92 9.23 10.82 9.21L10.82 9.21L8.95 8.97L8.95 8.97Q8.69 8.95 8.72 8.78L8.72 8.78L8.72 8.78Q8.79 8.18 9.23 7.69L9.23 7.69L9.23 7.69Q9.66 7.21 10.37 6.93L10.37 6.93L10.37 6.93Q11.07 6.65 11.96 6.65L11.96 6.65ZM11.72 12.45L11.72 12.45Q12.25 12.45 12.59 12.17L12.59 12.17L12.59 12.17Q12.94 11.90 12.94 11.45L12.94 11.45L12.94 11.14L12.94 11.14Q12.94 11.05 12.84 11.05L12.84 11.05L12.03 11.05L12.03 11.05Q11.49 11.05 11.21 11.23L11.21 11.23L11.21 11.23Q10.92 11.41 10.92 11.77L10.92 11.77L10.92 11.77Q10.92 12.08 11.13 12.26L11.13 12.26L11.13 12.26Q11.34 12.45 11.72 12.45L11.72 12.45ZM17.68 6.29L17.68 6.29Q17.07 6.29 16.69 5.91L16.69 5.91L16.69 5.91Q16.31 5.54 16.31 4.94L16.31 4.94L16.31 4.94Q16.31 4.35 16.69 3.99L16.69 3.99L16.69 3.99Q17.07 3.63 17.68 3.63L17.68 3.63L17.68 3.63Q18.30 3.63 18.68 3.99L18.68 3.99L18.68 3.99Q19.05 4.35 19.05 4.94L19.05 4.94L19.05 4.94Q19.05 5.54 18.68 5.91L18.68 5.91L18.68 5.91Q18.30 6.29 17.68 6.29L17.68 6.29ZM16.77 14L16.77 14Q16.66 14 16.59 13.93L16.59 13.93L16.59 13.93Q16.52 13.86 16.52 13.75L16.52 13.75L16.52 7.01L16.52 7.01Q16.52 6.90 16.59 6.83L16.59 6.83L16.59 6.83Q16.66 6.76 16.77 6.76L16.77 6.76L18.59 6.76L18.59 6.76Q18.70 6.76 18.77 6.83L18.77 6.83L18.77 6.83Q18.84 6.90 18.84 7.01L18.84 7.01L18.84 13.75L18.84 13.75Q18.84 13.86 18.77 13.93L18.77 13.93L18.77 13.93Q18.70 14 18.59 14L18.59 14L16.77 14ZM20.37 14L20.37 14Q20.26 14 20.19 13.93L20.19 13.93L20.19 13.93Q20.12 13.86 20.12 13.75L20.12 13.75L20.12 4.45L20.12 4.45Q20.12 4.34 20.19 4.27L20.19 4.27L20.19 4.27Q20.26 4.20 20.37 4.20L20.37 4.20L22.19 4.20L22.19 4.20Q22.30 4.20 22.37 4.27L22.37 4.27L22.37 4.27Q22.44 4.34 22.44 4.45L22.44 4.45L22.44 8.67L22.44 8.67Q22.44 8.74 22.48 8.75L22.48 8.75L22.48 8.75Q22.53 8.76 22.57 8.71L22.57 8.71L24.02 6.92L24.02 6.92Q24.14 6.76 24.33 6.76L24.33 6.76L26.40 6.76L26.40 6.76Q26.61 6.76 26.61 6.92L26.61 6.92L26.61 6.92Q26.61 7 26.56 7.07L26.56 7.07L24.82 9.31L24.82 9.31Q24.77 9.39 24.81 9.45L24.81 9.45L26.85 13.71L26.88 13.82L26.88 13.82Q26.88 14 26.66 14L26.66 14L24.77 14L24.77 14Q24.56 14 24.47 13.80L24.47 13.80L23.24 10.92L23.24 10.92Q23.23 10.86 23.18 10.86L23.18 10.86L23.18 10.86Q23.13 10.86 23.10 10.91L23.10 10.91L22.48 11.80L22.48 11.80Q22.44 11.84 22.44 11.93L22.44 11.93L22.44 13.75L22.44 13.75Q22.44 13.86 22.37 13.93L22.37 13.93L22.37 13.93Q22.30 14 22.19 14L22.19 14L20.37 14ZM29.02 6.29L29.02 6.29Q28.41 6.29 28.03 5.91L28.03 5.91L28.03 5.91Q27.65 5.54 27.65 4.94L27.65 4.94L27.65 4.94Q27.65 4.35 28.03 3.99L28.03 3.99L28.03 3.99Q28.41 3.63 29.02 3.63L29.02 3.63L29.02 3.63Q29.64 3.63 30.02 3.99L30.02 3.99L30.02 3.99Q30.39 4.35 30.39 4.94L30.39 4.94L30.39 4.94Q30.39 5.54 30.02 5.91L30.02 5.91L30.02 5.91Q29.64 6.29 29.02 6.29L29.02 6.29ZM28.11 14L28.11 14Q28 14 27.93 13.93L27.93 13.93L27.93 13.93Q27.86 13.86 27.86 13.75L27.86 13.75L27.86 7.01L27.86 7.01Q27.86 6.90 27.93 6.83L27.93 6.83L27.93 6.83Q28 6.76 28.11 6.76L28.11 6.76L29.93 6.76L29.93 6.76Q30.04 6.76 30.11 6.83L30.11 6.83L30.11 6.83Q30.18 6.90 30.18 7.01L30.18 7.01L30.18 13.75L30.18 13.75Q30.18 13.86 30.11 13.93L30.11 13.93L30.11 13.93Q30.04 14 29.93 14L29.93 14L28.11 14Z"></path></g><defs data-v-fde0c5aa=""><!----></defs><g data-v-fde0c5aa="" id="63294b54-2a4d-4d22-99b8-c121cf9d9c0f" stroke="none" fill="#FFFFFF" transform="matrix(0.9630847638858397,0,0,0.9630847638858397,34.028874188367034,107.14272800708012)"><path d="M49.8 57.3L46 68.2V68H15.7l16.8 13h23.1l9.8-30.3-10.8-7.8z"></path><path d="M53.7 39.6l14 10.2-9.5 29.3L75 66.9l7.1-22-25.7-18.6-10.5 7.6z"></path><path d="M81.4 41.9L75 22.2 56.3 8.7 30.8 27.2l4 12.4 21.6-15.8z"></path><path d="M34 42.8l-5.4-16.6L53.2 8H32.5L13.8 21.8 23.5 52h13.2L34 42.8z"></path><path d="M39.4 54H22.1l-9.5-29.1-6.4 19.4L13.4 66h31.5L49 54z"></path></g><!----></svg>