<svg data-v-423bf9ae="" xmlns="http://www.w3.org/2000/svg" viewBox="0 0 285 90" class="iconLeft"><!----><!----><!----><g data-v-423bf9ae="" id="23d3d850-76f4-496f-8696-b619332837f6" fill="black" transform="matrix(5.736137646384677,0,0,5.736137646384677,111.10881034710916,-4.445506030895949)"><path d="M0.43 12.10C1.19 13.08 2.56 13.85 4.49 13.85C6.69 13.85 8.37 12.85 8.37 10.89C8.37 9.52 7.55 8.89 6.62 8.53C5.54 8.11 4.28 8.04 3.39 7.69C2.90 7.49 2.46 7.20 2.46 6.58C2.46 5.77 3.25 5.24 4.51 5.24C5.74 5.24 6.58 5.74 7.14 6.37L8.13 5.49C7.56 4.75 6.43 3.95 4.56 3.95C2.35 3.95 1.09 5.07 1.09 6.64C1.09 7.76 1.72 8.37 2.74 8.78C3.79 9.20 5.03 9.30 5.94 9.63C6.55 9.86 6.99 10.18 6.99 10.91C6.99 11.98 6.02 12.59 4.58 12.59C3.19 12.59 2.17 12.03 1.50 11.23ZM10.72 7.99C11.27 7.62 11.90 7.41 12.68 7.41C13.75 7.41 14.41 7.80 14.41 9.11L14.41 9.37C13.82 9.11 13.12 8.97 12.46 8.97C10.82 8.97 9.63 9.83 9.63 11.45C9.63 13.08 10.81 13.83 12.29 13.83C13.10 13.83 13.86 13.61 14.48 13.20L14.48 13.73L15.71 13.73L15.71 9.03C15.71 6.85 14.52 6.15 12.84 6.15C11.61 6.15 10.74 6.52 10.19 6.93ZM12.59 12.73C11.65 12.73 10.89 12.33 10.89 11.38C10.89 10.39 11.72 9.95 12.78 9.95C13.30 9.95 13.90 10.05 14.41 10.23L14.41 12.29C13.86 12.57 13.17 12.73 12.59 12.73ZM17.78 6.33L17.78 13.73L19.11 13.73L19.11 6.33ZM18.44 3.50C17.99 3.50 17.68 3.82 17.68 4.30C17.68 4.76 17.99 5.10 18.44 5.10C18.89 5.10 19.21 4.76 19.21 4.30C19.21 3.82 18.89 3.50 18.44 3.50ZM25.77 6.33L22.57 10.00L22.57 3.39L21.24 3.84L21.24 13.73L22.57 13.73L22.57 11.62L23.83 10.19L26.18 13.73L27.62 13.73L24.65 9.24L27.22 6.33ZM28.88 6.33L28.88 13.73L30.21 13.73L30.21 6.33ZM29.54 3.50C29.09 3.50 28.78 3.82 28.78 4.30C28.78 4.76 29.09 5.10 29.54 5.10C29.99 5.10 30.31 4.76 30.31 4.30C30.31 3.82 29.99 3.50 29.54 3.50Z"></path></g><!----><g data-v-423bf9ae="" id="b76a2245-b570-4364-af8c-cd8463b795e2" transform="matrix(1.2328767123287672,0,0,1.2328767123287672,-7.231507856551914,-9.86301369863014)" stroke="none" fill="black"><path d="M49.8 57.3L46 68.2V68H15.7l16.8 13h23.1l9.8-30.3-10.8-7.8z"></path><path d="M53.7 39.6l14 10.2-9.5 29.3L75 66.9l7.1-22-25.7-18.6-10.5 7.6z"></path><path d="M81.4 41.9L75 22.2 56.3 8.7 30.8 27.2l4 12.4 21.6-15.8z"></path><path d="M34 42.8l-5.4-16.6L53.2 8H32.5L13.8 21.8 23.5 52h13.2L34 42.8z"></path><path d="M39.4 54H22.1l-9.5-29.1-6.4 19.4L13.4 66h31.5L49 54z"></path></g><!----></svg>